<svg xmlns="http://www.w3.org/2000/svg" xmlns:xlink="http://www.w3.org/1999/xlink" width="500" zoomAndPan="magnify" viewBox="0 0 375 374.999991" height="500" preserveAspectRatio="xMidYMid meet" version="1.0"><defs><g/><clipPath id="5f71dd429a"><path d="M 0 0 L 371.964844 0 L 371.964844 375 L 0 375 Z M 0 0 " clip-rule="nonzero"/></clipPath><clipPath id="17ca439d40"><path d="M 67.5 0 L 304.464844 0 C 322.367188 0 339.539062 7.113281 352.195312 19.769531 C 364.855469 32.429688 371.964844 49.597656 371.964844 67.5 L 371.964844 307.5 C 371.964844 325.402344 364.855469 342.570312 352.195312 355.230469 C 339.539062 367.886719 322.367188 375 304.464844 375 L 67.5 375 C 49.597656 375 32.429688 367.886719 19.769531 355.230469 C 7.113281 342.570312 0 325.402344 0 307.5 L 0 67.5 C 0 49.597656 7.113281 32.429688 19.769531 19.769531 C 32.429688 7.113281 49.597656 0 67.5 0 Z M 67.5 0 " clip-rule="nonzero"/></clipPath></defs><g clip-path="url(#5f71dd429a)"><g clip-path="url(#17ca439d40)"><path fill="#2b2b2b" d="M 0 0 L 371.964844 0 L 371.964844 374.871094 L 0 374.871094 Z M 0 0 " fill-opacity="1" fill-rule="nonzero"/></g></g><g fill="#ffffff" fill-opacity="1"><g transform="translate(48.070423, 200.775831)"><g><path d="M 71.734375 -102.484375 L 96.34375 -102.484375 L 96.34375 0 L 28.375 -49.984375 L 28.375 0 L 3.78125 0 L 3.78125 -102.484375 L 71.734375 -50.140625 Z M 71.734375 -102.484375 "/></g></g></g><g fill="#ffffff" fill-opacity="1"><g transform="translate(148.194722, 200.775831)"><g><path d="M 90.34375 -67.484375 C 90.34375 -60.859375 88.660156 -54.707031 85.296875 -49.03125 C 81.203125 -42.300781 75.421875 -37.625 67.953125 -35 L 90.03125 0 L 62.4375 0 L 41 -32.640625 L 29.328125 -32.640625 L 29.328125 0 L 4.734375 0 L 4.734375 -102.484375 L 53.765625 -102.484375 C 65.429688 -102.484375 74.679688 -98.648438 81.515625 -90.984375 C 87.398438 -84.253906 90.34375 -76.421875 90.34375 -67.484375 Z M 29.328125 -80.40625 L 29.328125 -54.71875 L 53.609375 -54.71875 C 56.972656 -54.71875 59.65625 -55.1875 61.65625 -56.125 C 63.332031 -57.070312 64.539062 -57.96875 65.28125 -58.8125 C 66.332031 -60.070312 67.117188 -61.539062 67.640625 -63.21875 C 68.054688 -64.695312 68.265625 -66.117188 68.265625 -67.484375 C 68.265625 -68.953125 68.054688 -70.421875 67.640625 -71.890625 C 67.003906 -73.578125 66.109375 -75.050781 64.953125 -76.3125 C 62.640625 -79.039062 58.910156 -80.40625 53.765625 -80.40625 Z M 29.328125 -80.40625 "/></g></g></g><g fill="#ffffff" fill-opacity="1"><g transform="translate(243.273396, 200.775831)"><g><path d="M 29.328125 -22.078125 L 78.671875 -22.078125 L 78.671875 0 L 4.734375 0 L 4.734375 -102.484375 L 29.328125 -102.484375 Z M 29.328125 -22.078125 "/></g></g></g><g fill="#c1ff72" fill-opacity="1"><g transform="translate(207.619706, 290.951992)"><g><path d="M 13.28125 0.421875 C 11.613281 0.421875 10.144531 0.0859375 8.875 -0.578125 C 7.601562 -1.253906 6.628906 -2.1875 5.953125 -3.375 C 5.273438 -4.570312 4.9375 -5.925781 4.9375 -7.4375 C 4.9375 -8.945312 5.273438 -10.296875 5.953125 -11.484375 C 6.628906 -12.679688 7.601562 -13.625 8.875 -14.3125 C 10.144531 -15 11.613281 -15.34375 13.28125 -15.34375 C 14.96875 -15.34375 16.445312 -15.003906 17.71875 -14.328125 C 18.988281 -13.660156 19.960938 -12.726562 20.640625 -11.53125 C 21.316406 -10.34375 21.65625 -8.992188 21.65625 -7.484375 C 21.65625 -5.191406 20.894531 -3.300781 19.375 -1.8125 C 17.851562 -0.320312 15.820312 0.421875 13.28125 0.421875 Z M 13.28125 0.421875 "/></g></g><g transform="translate(234.222537, 290.951992)"><g><path d="M 20.25 0.984375 C 16.914062 0.984375 14.023438 0.375 11.578125 -0.84375 C 9.128906 -2.070312 7.242188 -3.867188 5.921875 -6.234375 C 4.609375 -8.609375 3.953125 -11.457031 3.953125 -14.78125 C 3.953125 -17.851562 4.609375 -20.429688 5.921875 -22.515625 C 7.242188 -24.609375 9.285156 -26.320312 12.046875 -27.65625 C 14.816406 -28.988281 18.425781 -30.019531 22.875 -30.75 C 25.988281 -31.25 28.351562 -31.796875 29.96875 -32.390625 C 31.582031 -32.984375 32.671875 -33.65625 33.234375 -34.40625 C 33.804688 -35.164062 34.09375 -36.125 34.09375 -37.28125 C 34.09375 -38.945312 33.507812 -40.21875 32.34375 -41.09375 C 31.1875 -41.976562 29.253906 -42.421875 26.546875 -42.421875 C 23.660156 -42.421875 20.914062 -41.773438 18.3125 -40.484375 C 15.707031 -39.203125 13.445312 -37.507812 11.53125 -35.40625 L 10.59375 -35.40625 L 5.125 -43.640625 C 7.769531 -46.554688 10.988281 -48.832031 14.78125 -50.46875 C 18.582031 -52.101562 22.726562 -52.921875 27.21875 -52.921875 C 34.09375 -52.921875 39.066406 -51.457031 42.140625 -48.53125 C 45.210938 -45.613281 46.75 -41.472656 46.75 -36.109375 L 46.75 -13.5625 C 46.75 -11.238281 47.769531 -10.078125 49.8125 -10.078125 C 50.59375 -10.078125 51.363281 -10.21875 52.125 -10.5 L 52.78125 -10.3125 L 53.71875 -1.21875 C 53 -0.75 51.992188 -0.363281 50.703125 -0.0625 C 49.421875 0.226562 48.007812 0.375 46.46875 0.375 C 43.363281 0.375 40.9375 -0.21875 39.1875 -1.40625 C 37.445312 -2.601562 36.203125 -4.472656 35.453125 -7.015625 L 34.46875 -7.109375 C 31.925781 -1.710938 27.1875 0.984375 20.25 0.984375 Z M 24.390625 -8.75 C 27.398438 -8.75 29.804688 -9.757812 31.609375 -11.78125 C 33.421875 -13.8125 34.328125 -16.632812 34.328125 -20.25 L 34.328125 -25.515625 L 33.421875 -25.703125 C 32.640625 -25.078125 31.613281 -24.550781 30.34375 -24.125 C 29.070312 -23.707031 27.242188 -23.289062 24.859375 -22.875 C 22.035156 -22.40625 20.003906 -21.597656 18.765625 -20.453125 C 17.523438 -19.304688 16.90625 -17.679688 16.90625 -15.578125 C 16.90625 -13.347656 17.5625 -11.648438 18.875 -10.484375 C 20.195312 -9.328125 22.035156 -8.75 24.390625 -8.75 Z M 24.390625 -8.75 "/></g></g><g transform="translate(288.981993, 290.951992)"><g><path d="M 13.984375 -58.140625 C 11.628906 -58.140625 9.710938 -58.851562 8.234375 -60.28125 C 6.765625 -61.707031 6.03125 -63.550781 6.03125 -65.8125 C 6.03125 -68.039062 6.765625 -69.867188 8.234375 -71.296875 C 9.710938 -72.734375 11.628906 -73.453125 13.984375 -73.453125 C 15.554688 -73.453125 16.953125 -73.117188 18.171875 -72.453125 C 19.398438 -71.796875 20.347656 -70.894531 21.015625 -69.75 C 21.691406 -68.601562 22.03125 -67.289062 22.03125 -65.8125 C 22.03125 -64.34375 21.691406 -63.023438 21.015625 -61.859375 C 20.347656 -60.703125 19.398438 -59.789062 18.171875 -59.125 C 16.953125 -58.46875 15.554688 -58.140625 13.984375 -58.140625 Z M 7.484375 0 L 7.484375 -51.9375 L 20.53125 -51.9375 L 20.53125 0 Z M 7.484375 0 "/></g></g></g></svg>